# xmcd CD database file
#
# Track frame offsets:
#	150
#	25520
#	37365
#	57960
#	77580
#	92167
#	109818
#	131436
#	148009
#	163808
#	178778
#	195944
#	215436
#	231641
#	246589
#
# Disc length: 3516 seconds
#
# Revision: 1
# Processed by: cddbd v1.5.1PL0 Copyright (c) Steve Scherf et al.
# Submitted via: CDex 1.51
#
DISCID=d90dba0f
DTITLE=Youpi Whaou - Born To Be Blue
DYEAR=1900
DGENRE=Country
TTITLE0=Born To Be Blue
TTITLE1=Some Days You Gonna Dance
TTITLE2=Ode To Billy Joe
TTITLE3=Jolene
TTITLE4=You Never Can Tell
TTITLE5=Have Mercy
TTITLE6=Give it Up Or Let Me Go'
TTITLE7=I'm So Lonesome I Could Cry
TTITLE8=Go Down Swingin
TTITLE9=Nothing´s Gonna Bother Me Tonight
TTITLE10=Crazy
TTITLE11=I Can Love You Better
TTITLE12=Let' er Rip
TTITLE13=Girls With Guitars
TTITLE14=See See Rider
EXTD=
EXTT0=
EXTT1=
EXTT2=
EXTT3=
EXTT4=
EXTT5=
EXTT6=
EXTT7=
EXTT8=
EXTT9=
EXTT10=
EXTT11=
EXTT12=
EXTT13=
EXTT14=
PLAYORDER=
